<svg width="240" height="188" viewBox="0 0 240 188" fill="none" xmlns="http://www.w3.org/2000/svg">
<path d="M0 6C0 2.68629 2.68629 0 6 0H234C237.314 0 240 2.68629 240 6V141H0V6Z" fill="#231F20"/>
<path d="M0 141H240V182C240 185.314 237.314 188 234 188H5.99999C2.68629 188 0 185.314 0 182V141Z" fill="#C4231C"/>
<path d="M91.2764 11.7014L91.068 11.9766C89.0745 12.67 88.0307 15.0437 87.9367 19.1016L87.2436 56.7966C87.1511 61.1297 87.7525 63.5989 89.0525 64.1972C89.4232 64.3364 89.9341 64.6338 90.581 65.096H75.3547L75.4268 64.6115C76.085 64.564 76.5587 64.4244 76.8412 64.1972C77.9716 63.3202 78.6815 61.7533 78.9636 59.4935C79.1058 57.6479 79.2238 55.8281 79.3158 54.0304C79.4283 53.4321 79.5204 52.5298 79.596 51.3336L79.8746 29.2025C79.5039 29.2025 78.6462 29.1732 77.3004 29.1327H73.4074C68.6792 29.1327 66.0149 29.6133 65.4135 30.5819C65.6439 29.2025 66.4314 27.4707 67.7776 25.3975C68.9801 25.8083 72.4119 26.0176 78.0676 26.0176C79.5039 26.0176 80.2213 24.8362 80.2213 22.4625V20.9362C80.1751 20.2868 80.1531 19.8464 80.1531 19.6153C80.1531 17.3846 79.8507 15.9023 79.2477 15.1614C73.3134 15.341 68.2627 19.0357 64.0911 26.2379C60.4768 32.567 58.6698 38.9327 58.6698 45.353C58.6698 53.0619 61.2643 60.8179 66.4553 68.6184C66.4553 68.6659 66.6175 69.0806 66.9403 69.8691C64.6224 68.3467 62.1682 65.7859 59.5733 62.1903C57.1155 58.7303 55.4244 55.6008 54.4967 52.7867C54.2181 52.0013 53.8604 50.0641 53.4188 46.9748C52.9788 43.8855 52.7594 41.8567 52.7594 40.8882C52.7594 35.8176 53.3385 31.6202 54.4967 28.3036C54.7768 27.4228 56.0972 25.0268 58.4597 21.1085C60.6836 17.3258 61.7975 15.3668 61.7975 15.2272C61.7975 13.5688 60.7095 12.5784 58.5295 12.2552L58.4597 11.7014H91.2764Z" fill="white"/>
<path d="M149.912 11.7016C149.077 12.1198 148.521 12.4391 148.243 12.6702C147.638 13.1286 147.271 13.6131 147.129 14.1229C146.48 16.794 146.159 18.9186 146.159 20.4851L145.949 61.0161C145.903 61.8896 146.227 62.7334 146.922 63.5368C147.616 64.3479 148.381 64.9349 149.216 65.3016H134.058C134.058 65.3016 134.545 65.0046 135.521 64.4063C136.863 63.5258 137.56 61.7536 137.607 59.079C137.975 34.3172 138.16 22.4222 138.16 23.3908C138.16 20.1624 137.859 17.2305 137.258 14.6038C137.118 14.0535 136.723 13.525 136.074 13.0151C135.054 12.1857 134.523 11.7457 134.477 11.7016H149.912Z" fill="white"/>
<path d="M189.152 12.4642C186.834 12.879 185.676 14.1227 185.676 16.1959V42.4801C185.676 47.2719 184.913 51.8876 183.382 56.3122C181.621 61.4782 179.12 65.3744 175.875 67.9979C180 61.5995 182.064 54.9254 182.064 47.9727C182.064 42.4473 180.093 37.2224 176.152 32.2954C172.491 27.6466 167.946 24.2162 162.526 22.0039C161.043 21.4056 160.348 21.1086 160.438 21.1086C159.699 21.1086 159.327 22.928 159.327 26.5642C159.28 29.0482 159.21 34.045 159.12 41.5485C159.072 47.8113 159.048 52.8269 159.048 56.6022C159.048 59.4565 159.35 61.5258 159.952 62.8175C160.14 63.1402 160.566 63.4852 161.241 63.8519C161.912 64.2226 162.271 64.52 162.318 64.7508H152.791C152.885 64.6116 153.37 64.3107 154.252 63.8519C154.991 63.4372 155.436 63.0007 155.572 62.5384C155.99 61.2506 156.221 58.4661 156.269 54.1806V45.3421L156.616 21.1635C156.616 20.1949 156.035 19.5273 154.877 19.1566C154.091 18.8849 153.116 18.7933 151.958 18.8849C155.898 13.4036 158.353 10.6666 159.327 10.6666C159.28 10.6666 159.745 10.872 160.719 11.2829C169.664 14.9557 176.757 20.3306 181.992 27.4045H182.689V17.6486C182.689 16.1737 182.492 15.124 182.099 14.5004C181.704 13.8803 180.904 13.1982 179.698 12.4642L179.838 11.9069H188.804L189.152 12.4642Z" fill="white"/>
<path fill-rule="evenodd" clip-rule="evenodd" d="M45.6146 69.3043C51.2205 51.6602 41.9136 40.8916 35.0515 35.9279C30.8878 32.9044 27.8451 31.4003 25.9217 31.4003C27.9818 28.9822 31.1625 26.7332 35.4629 24.6456C36.3758 24.1798 37.0176 23.831 37.3808 23.5998C38.2549 23.0861 38.7325 22.602 38.8246 22.1359L39.649 18.7936C37.9995 16.4234 37.1328 15.1905 37.0396 15.0989C36.2152 14.4055 34.6609 14.0532 32.374 14.0532C27.7068 14.0532 24.664 15.6563 23.2477 18.8668C22.1028 21.4721 21.5073 23.7285 21.4646 25.6325L20.9815 53.9497C20.8914 59.4349 21.2103 62.7149 21.9422 63.7824C22.1267 64.0175 22.973 64.5273 24.4834 65.3162L10.4134 65.4557C10.9149 65.0851 11.671 64.5273 12.678 63.7824L13.1591 62.8762C13.2034 62.5059 13.3174 61.7829 13.5019 60.7153C13.6403 59.7869 13.7069 59.0643 13.7069 58.5545L13.6402 20.4739C12.6333 19.2227 11.4203 18.5882 10 18.5882C16.5447 13.3816 23.2923 10.7803 30.248 10.7803C35.4171 10.7803 38.8023 10.9931 40.4032 11.4117C43.7418 12.3398 46.1678 14.5887 47.6762 18.166C48.043 19.4172 48.5484 20.8812 49.1867 22.5541L48.5026 22.4808C47.038 22.3927 44.934 23.0421 42.1863 24.4328C40.1266 25.4528 38.0704 26.5021 36.0126 27.5661L34.9136 28.6115C40.4494 30.0536 42.5146 32.4971 46.1678 36.4155C48.9817 39.4354 55.3384 61.1776 45.6146 69.3043Z" fill="white"/>
<path fill-rule="evenodd" clip-rule="evenodd" d="M132.158 27.0489C131.922 27.2765 131.378 27.669 130.529 28.2229C129.869 28.6415 129.445 29.1696 129.255 29.8155C128.641 31.7561 128.333 34.299 128.333 37.4359C128.333 38.4485 128.402 40.0115 128.538 42.11C128.674 44.2124 128.72 45.7458 128.674 46.7183C128.674 47.8704 128.608 49.9471 128.472 52.9484C128.381 55.63 128.333 57.7289 128.333 59.2518C128.333 61.1008 128.425 62.3481 128.608 62.99C129.017 64.3293 129.88 65.1147 131.2 65.3458V65.8997C130.883 66.1343 130.29 66.2446 129.426 66.2446C128.788 66.2446 127.835 66.153 126.559 65.9695C125.285 65.7859 124.33 65.6908 123.692 65.6908C116.183 65.6908 109.378 62.0655 103.281 54.8193C97.4563 47.8447 94.5444 40.4847 94.5444 32.7282C94.5444 29.584 95.3186 25.963 96.8663 21.8536C98.4131 17.7443 99.1857 15.5943 99.1857 15.4146C99.1857 14.1194 97.9335 12.9637 95.4315 11.9511H96.4529H128.13C128.538 11.9511 129.699 11.5804 131.612 10.8395C130.928 13.8883 128.993 17.627 125.81 22.0625V21.6443C125.81 20.3495 125.309 18.9915 124.305 17.5572C123.306 16.1263 122.191 15.2969 120.961 15.0662C120.416 14.6955 120.007 14.5119 119.732 14.5119H115.707C115.386 14.5119 114.669 14.7649 113.555 15.2716C112.441 15.7814 111.7 16.1739 111.338 16.453C105.83 20.4668 103.077 26.3995 103.077 34.2511C103.077 39.7913 104.463 45.3093 107.242 50.8019C110.291 56.9915 114.16 60.8697 118.847 62.4397H119.869L120.076 62.161C120.302 60.1763 120.416 55.6047 120.416 48.4465C120.416 48.0318 120.474 47.3715 120.586 46.4762C120.7 45.5735 120.758 44.8949 120.758 44.4327V33.7888C120.758 32.4975 120.37 31.2498 119.596 30.0427C118.141 29.2612 110.254 29.2137 109.981 29.2577L111.467 26.5648H131.612L132.158 27.0489Z" fill="white"/>
<path fill-rule="evenodd" clip-rule="evenodd" d="M230 27.0196C229.766 27.2508 229.223 27.6433 228.372 28.1971C227.711 28.6118 227.287 29.1439 227.098 29.7897C226.485 31.7304 226.177 34.2697 226.177 37.4066C226.177 38.4263 226.245 39.9822 226.382 42.0843C226.518 44.1832 226.566 45.7165 226.518 46.6925C226.518 47.8447 226.452 49.9214 226.315 52.9191C226.225 55.6007 226.177 57.6997 226.177 59.226C226.177 61.0677 226.269 62.3188 226.452 62.9608C226.861 64.3035 227.726 65.0889 229.047 65.3201V65.8743C228.726 66.1051 228.137 66.2189 227.271 66.2189C226.631 66.2189 225.678 66.1273 224.405 65.9437C223.129 65.7566 222.174 65.665 221.535 65.665C214.029 65.665 207.222 62.0401 201.126 54.79C195.3 47.819 192.388 40.4554 192.388 32.699C192.388 29.5586 193.161 25.9298 194.708 21.8244C196.257 17.715 197.03 15.5685 197.03 15.3853C197.03 14.0901 195.778 12.9345 193.277 11.9218H194.299H225.974C226.382 11.9218 227.544 11.5512 229.454 10.8137C228.772 13.859 226.839 17.6012 223.653 22.0333V21.619C223.653 20.3237 223.151 18.9623 222.15 17.5314C221.148 16.1006 220.034 15.2641 218.805 15.0369C218.262 14.6662 217.849 14.4861 217.578 14.4861H213.551C213.232 14.4861 212.515 14.7356 211.399 15.2419C210.285 15.756 209.544 16.1446 209.184 16.4237C203.674 20.4376 200.921 26.3738 200.921 34.2253C200.921 39.762 202.308 45.28 205.083 50.7726C208.133 56.9622 212.004 60.8404 216.689 62.4104H217.713L217.92 62.1352C218.144 60.1466 218.262 55.5789 218.262 48.4208C218.262 48.0064 218.316 47.3458 218.43 46.4431C218.545 45.5482 218.6 44.8657 218.6 44.4034V33.7595C218.6 32.4682 218.215 31.2206 217.442 30.0209C215.985 29.232 208.1 29.1879 207.825 29.232L209.312 26.5355H229.454L230 27.0196Z" fill="white"/>
<path d="M85.1274 83.6719C85.1274 88.6984 83.1793 96.0327 79.2883 105.671C78.1282 108.482 74.8864 115.676 69.5536 127.245L62.8098 104.904C62.4392 105.047 62.2069 105.209 62.1144 105.388C61.4193 106.405 60.3995 108.482 59.0571 111.615C57.2462 115.948 56.2965 118.186 56.2044 118.325C55.3229 120.123 54.0248 122.842 52.3099 126.489C52.0349 125.843 51.1294 122.912 49.599 117.702C48.3025 113.277 46.4011 106.636 43.8951 97.7789C42.831 93.7284 41.7633 89.667 40.6996 85.6091C39.1708 79.8011 37.9194 76.0441 36.9449 74.3381C36.6683 73.8318 36.1594 73.3473 35.4161 72.885C34.535 72.4227 33.9778 72.056 33.7474 71.7769H48.2065C46.606 72.7014 45.8056 73.7437 45.8056 74.8993C45.8056 75.3141 47.305 80.6376 50.3035 90.8632C53.5359 102.259 55.3139 108.555 55.6363 109.747L56.2632 110.441C56.9124 109.978 57.9154 108.133 59.2597 104.904C60.6522 101.818 61.3512 99.8595 61.3512 99.0265C61.3512 98.6118 60.2263 94.5321 57.9781 86.787C55.7303 79.0379 54.4542 74.8994 54.1537 74.3747C53.8532 73.8392 53.2741 73.3547 52.4165 72.9181C51.5592 72.4777 51.1294 72.1218 51.1294 71.8432C56.7851 71.6596 59.9348 71.568 60.586 71.568C63.0422 71.568 64.8014 71.6413 65.8671 71.7769C64.0636 72.4227 63.1582 73.1859 63.1582 74.0629C63.1582 75.1671 64.7587 81.2429 67.9546 92.2866C71.1521 103.326 73.1217 109.703 73.865 111.41H74.0033C74.1416 111.41 74.2576 111.34 74.3488 111.2C75.6018 109.171 76.9222 105.693 78.3127 100.755C79.7052 95.8199 80.4002 92.1802 80.4002 89.8283C80.4002 86.4163 79.7271 83.3051 78.3828 80.4945C76.76 77.1705 74.4899 75.1414 71.5725 74.4075C71.5725 74.4075 73.0296 73.6704 75.9486 72.1916C78.4048 70.9954 79.7271 70.3936 79.9152 70.3936C80.3763 70.3936 81.0514 71.0617 81.9291 72.397C84.0605 75.6294 85.1274 79.3829 85.1274 83.6719Z" fill="white"/>
<path fill-rule="evenodd" clip-rule="evenodd" d="M167.058 113.967C167.058 114.796 164.997 119.221 160.869 127.245H159.968L160.453 126.969C160.22 126.555 159.781 126.071 159.13 125.517C157.834 125.01 153.244 124.71 145.365 124.618H133.338C136.259 123.649 137.765 120.725 137.856 115.834C138.228 95.1338 138.412 84.527 138.412 84.0167C138.412 77.5629 137.704 73.9455 136.29 73.164C135.772 72.9293 135.114 72.4449 134.311 71.7113H149.954C147.539 73.2263 146.307 75.9524 146.263 79.8708L145.783 112.998C145.737 115.948 146.06 118.116 146.751 119.499C147.723 121.393 149.571 122.336 152.298 122.336C155.114 122.336 157.932 121.393 160.749 119.499C163.246 117.838 165.351 115.717 167.058 113.138V113.967Z" fill="white"/>
<path d="M206.254 72.1218C205.745 73.226 204.931 74.6132 203.819 76.2713C202.429 78.348 201.548 79.7095 201.177 80.3514L200.76 80.2852C199.696 76.3668 196.89 74.4074 192.349 74.4074C188.873 74.4074 186.485 75.3101 185.187 77.1191C184.075 78.6528 183.52 81.2245 183.52 84.8424C183.52 85.5833 183.819 85.9832 184.423 86.0238H193.045C193.6 86.0238 195.104 85.9318 197.563 85.7447C197.146 87.0839 196.104 88.9771 194.435 91.4209C194.481 91.0978 194.328 90.6944 193.982 90.2099C193.633 89.7254 193.297 89.4834 192.975 89.4834H184.005C183.636 89.7149 183.426 90.3822 183.38 91.4868L183.101 120.123C183.055 121.319 183.354 122.383 184.005 123.304C184.652 124.225 185.558 124.665 186.716 124.618V125.311H171.351V124.621C173.066 124.25 174.18 123.282 174.689 121.719C174.918 120.89 175.036 119.323 175.036 117.023C175.036 114.906 175.104 111.71 175.246 107.454C175.384 103.195 175.453 99.9803 175.453 97.8194C175.453 97.8194 175.406 91.8758 175.314 79.9991C175.268 77.9263 174.757 76.2678 173.785 75.0206C173.044 74.1069 171.674 73.0943 169.684 71.9862H200.482C201.317 71.9862 203.242 71.8248 206.254 71.4982V72.1218Z" fill="white"/>
<path fill-rule="evenodd" clip-rule="evenodd" d="M89.8486 76.2243C89.8486 76.2243 89.7561 75.6373 90.0735 75.3219C90.3924 75.0023 90.8018 74.5073 90.5287 73.8763C90.8018 74.008 90.8018 74.5073 90.8018 74.5073C90.8018 74.5073 91.9674 74.2208 92.6311 75.0023C92.056 74.8558 89.9849 75.5016 90.5287 76.8518C90.6635 76.3088 90.6192 75.7694 91.6152 75.5016C91.4804 75.8095 92.525 76.1767 92.6625 76.6281C92.2531 76.7197 91.5725 76.8112 91.7515 77.3066C92.2072 77.3507 92.9336 77.4388 93.3901 77.2626C93.0719 77.079 92.8745 76.8112 93.0241 76.3272C93.0884 76.6865 94.3888 77.1671 95.1724 77.3799C95.9615 77.5931 96.6879 78.1322 96.7177 78.4662C97.142 78.0149 97.5973 77.8352 97.9311 77.8901C98.261 77.956 98.9748 78.0258 99.338 77.5779C99.6997 77.1235 100.109 76.6717 99.6997 76.1767C100.426 76.6281 100.29 77.2626 100.29 77.7545C100.29 78.2569 100.517 78.976 100.019 78.976C99.5187 78.976 99.157 78.8439 99.157 78.8439C99.157 78.8439 99.063 78.5286 99.3823 78.0515C99.1335 78.1614 98.7256 78.9102 99.2699 79.9006C99.8156 80.8984 99.8376 81.4195 99.7455 81.7754C99.655 82.1351 99.1703 81.8085 99.1703 81.8085C99.1703 81.8085 99.0505 82.4653 99.7161 82.832C99.3823 82.7697 98.5341 82.3479 98.0231 81.5957C97.5048 80.8399 96.7784 80.2163 96.4465 80.0584C96.7177 80.3301 97.142 80.8103 97.2615 81.0235C96.8705 80.6345 95.1446 79.611 94.9918 79.123C94.8715 79.4897 95.3863 79.9115 95.3863 79.9115C95.3863 79.9115 94.252 80.0144 93.5699 80.1941C92.8893 80.3776 90.5714 79.9703 89.074 77.9817C89.8008 78.345 90.3924 78.1614 90.7595 78.0258C90.3446 77.5343 89.8928 76.8518 88.9392 77.0354C88.5301 76.6281 89.2565 76.2243 89.8486 76.2243Z" fill="#6D6F71"/>
<path fill-rule="evenodd" clip-rule="evenodd" d="M99.989 83.3752L100.563 83.5806C100.563 83.5806 100.563 84.9674 102.075 85.7231C102.017 85.8736 102.32 86.1453 102.68 85.9987C102.652 86.116 102.513 86.116 102.381 86.0973C102.381 86.1562 102.545 86.3397 102.832 86.3729C103.12 86.3986 104.21 86.1453 104.044 85.1619C104.527 85.1217 105.327 84.806 105.829 84.9822C106.102 85.2975 107.192 86.6847 107.192 86.6847C107.192 86.6847 106.163 85.239 106.222 84.0943C106.585 84.7584 106.767 85.5434 106.767 85.5434C106.767 85.5434 106.889 83.7934 106.889 83.0707C107.129 83.1035 107.341 83.0707 107.404 82.8322C107.465 82.5898 107.782 81.2361 106.738 79.6988C105.694 78.1616 105.558 77.4386 106.01 76.8516C105.602 77.1673 105.374 77.7137 105.785 78.6126C106.194 79.5227 105.602 79.8785 105.602 79.8785C105.602 79.8785 101.833 74.6427 106.102 71.4766C105.65 71.3005 103.135 73.7662 103.983 76.6867C103.165 75.9637 102.832 72.8927 103.5 71.4509C102.652 72.1116 101.682 74.0963 101.986 75.2449C101.44 75.3623 100.411 75.7251 100.714 76.5105C102.104 76.6867 103.317 77.292 103.8 78.0735C104.284 78.855 105.497 80.8401 106.102 80.8401C105.829 81.148 105.224 80.363 105.071 80.2675C105.252 80.8031 105.602 81.2213 105.875 81.3133C105.862 81.5187 105.587 83.5548 105.919 84.3987C105.709 84.1274 105.587 83.5548 105.587 83.5548C105.587 83.5548 104.983 83.1584 104.619 83.5548C104.256 83.9438 104.347 84.5784 104.649 84.7253C104.044 84.8465 103.714 85.0629 103.045 84.2151C103.013 84.7253 103.437 85.1509 103.8 85.1802C103.8 85.3564 103.103 85.0629 102.923 85.0921C102.74 85.1217 101.651 85.0044 101.621 83.496C101.289 83.5256 101.228 84.7877 101.803 85.2094C101.409 85.0921 100.653 84.2447 100.775 83.1035C100.653 83.1916 100.563 83.3752 100.563 83.3752H99.989Z" fill="#6D6F71"/>
<path fill-rule="evenodd" clip-rule="evenodd" d="M121.293 76.9324C121.293 76.9324 122.567 77.167 123.292 77.593C124.02 78.0148 124.505 78.4953 125.352 78.5542C124.385 78.7339 123.779 78.5542 123.233 78.2568C122.691 77.9559 121.538 78.1944 121.538 78.1944C121.538 78.1944 123.021 78.1944 123.69 78.8255C124.354 79.4565 124.806 79.3061 124.806 79.3061C124.806 79.3061 123.626 79.6109 122.857 79.6986C122.086 79.7867 121.994 80.9977 121.994 80.9977C121.994 80.9977 122.018 80.3885 121.938 79.743C121.604 81.9113 120.721 83.1882 119.633 84.3325C119.825 84.2628 120.478 83.6173 120.478 83.6173C120.478 83.6173 120.072 84.4538 119.226 84.8463C119.404 84.8611 120.179 84.6666 120.402 84.2152C120.825 83.3753 121.719 81.6872 122.628 81.2799C123.533 80.8764 124.49 81.504 124.626 80.6453C124.081 80.6929 122.899 80.6052 122.899 80.6052C122.899 80.6052 124.944 80.1464 128.35 80.7849C129.123 80.7373 128.802 80.2419 128.802 80.2419C128.802 80.2419 133.163 80.1464 134.115 76.2682C133.073 77.8495 131.257 78.6606 130.799 78.8438C131.301 78.385 132.615 77.2185 132.979 77.0789C132.435 76.7601 130.44 77.0789 129.8 77.6698C130.576 77.8019 131.257 77.3065 131.257 77.3065C131.257 77.3065 131.437 78.1613 127.214 78.0732C124.717 77.9816 123.056 76.6864 121.293 76.9324Z" fill="#6D6F71"/>
<path fill-rule="evenodd" clip-rule="evenodd" d="M116.546 84.1677C116.546 84.1677 116.271 85.5287 115.321 85.5287C114.364 85.5287 114.41 84.6666 114.41 84.6666C114.41 84.6666 114.274 85.3892 114.501 85.7965C114.182 85.5287 114.182 84.3107 114.182 83.4485C114.182 82.5899 114.137 80.9205 114.547 80.0583C114.956 79.2071 116.666 77.4094 117.001 76.9947C117.331 76.5691 117.939 76.1509 118.576 76.2978C118.936 76.0846 119.391 75.696 119.572 75.2115C119.48 76.0261 119.21 76.5363 118.541 76.7527C117.879 76.9581 117.696 77.0789 117.211 77.8019C116.726 78.5285 115.456 80.0949 115.456 80.0949C115.456 80.0949 116.636 78.9759 117.001 78.3745C117.18 78.9759 117.394 79.7574 116.787 80.1207C116.183 80.4839 115.791 80.4839 115.607 81.2031C115.76 81.0561 116.031 80.7225 116.031 80.7225C116.031 80.7225 115.607 81.5663 115.607 82.3771C115.607 83.1917 115.941 84.483 115.548 84.7874C115.791 84.8205 115.978 84.3509 115.932 83.8519C116.159 83.6758 116.499 83.7678 116.546 84.1677Z" fill="#6D6F71"/>
<path fill-rule="evenodd" clip-rule="evenodd" d="M122.052 101.32C122.052 101.32 121.628 101.257 120.662 102.428C119.692 103.609 118.875 105.231 117.361 105.231C117.07 105.231 116.76 105.282 116.439 105.356C117.094 104.823 118.211 103.829 118.453 103.008C118.047 103.895 116.219 105.121 115.294 105.693C114.298 106.031 113.278 106.438 112.397 106.438C111.714 106.438 110.815 106.427 109.929 106.42H109.883H109.837C108.956 106.427 108.054 106.438 107.372 106.438C105.858 106.438 103.922 105.231 102.408 105.231C100.895 105.231 100.077 103.609 99.1086 102.428C98.1404 101.257 97.7165 101.32 97.7165 101.32C97.7165 101.32 97.6867 102.219 98.1099 103.485C98.5334 104.747 98.6529 106.922 98.7748 108.79C98.8966 110.658 100.411 114.569 100.589 117.339C100.774 120.109 100.833 125.59 101.559 127.513C102.279 129.424 103.296 133.805 109.837 133.897V133.9C109.856 133.897 109.871 133.897 109.883 133.897C109.9 133.897 109.912 133.897 109.929 133.9V133.897C116.47 133.805 117.49 129.424 118.209 127.513C118.934 125.59 118.997 120.109 119.176 117.339C119.36 114.569 120.87 110.658 120.992 108.79C121.114 106.922 121.237 104.747 121.661 103.485C122.086 102.219 122.052 101.32 122.052 101.32Z" fill="#231F20"/>
<path d="M122.052 101.32C122.052 101.32 121.628 101.257 120.662 102.428C119.692 103.609 118.875 105.231 117.361 105.231C117.07 105.231 116.76 105.282 116.439 105.356C117.094 104.823 118.211 103.829 118.453 103.008C118.047 103.895 116.219 105.121 115.294 105.693C114.298 106.031 113.278 106.438 112.397 106.438C111.714 106.438 110.815 106.427 109.929 106.42H109.883H109.837C108.956 106.427 108.054 106.438 107.372 106.438C105.858 106.438 103.922 105.231 102.408 105.231C100.895 105.231 100.077 103.609 99.1086 102.428C98.1404 101.257 97.7165 101.32 97.7165 101.32C97.7165 101.32 97.6867 102.219 98.1099 103.485C98.5334 104.747 98.6529 106.922 98.7748 108.79C98.8966 110.658 100.411 114.569 100.589 117.339C100.774 120.109 100.833 125.59 101.559 127.513C102.279 129.424 103.296 133.805 109.837 133.897V133.9C109.856 133.897 109.871 133.897 109.883 133.897C109.9 133.897 109.912 133.897 109.929 133.9V133.897C116.47 133.805 117.49 129.424 118.209 127.513C118.934 125.59 118.997 120.109 119.176 117.339C119.36 114.569 120.87 110.658 120.992 108.79C121.114 106.922 121.237 104.747 121.661 103.485C122.086 102.219 122.052 101.32 122.052 101.32Z" stroke="#6D6F71" stroke-width="0.742" stroke-miterlimit="3.864" stroke-linecap="round" stroke-linejoin="bevel"/>
<path fill-rule="evenodd" clip-rule="evenodd" d="M116.413 124.501C115.657 126.614 114.233 127.637 113.355 127.788C114.059 127.333 114.273 126.794 114.273 126.794L113.565 126.731C112.691 126.643 112.146 126.904 112.212 127.282C112.28 127.663 112.184 128.217 112.276 128.511C112.459 128.511 113.984 128.118 113.984 128.118L112.577 128.793C112.577 128.793 112.538 129.351 112.677 129.398C112.736 129.417 112.985 129.45 113.267 129.483C113.348 129.45 113.433 129.45 113.477 129.45C113.549 129.45 113.627 129.457 113.708 129.468C113.791 129.468 113.868 129.476 113.942 129.476C113.969 129.476 113.991 129.476 114.016 129.468H114.03C114.074 129.468 114.121 129.49 114.152 129.524C114.189 129.556 114.211 129.6 114.211 129.648C114.211 129.718 114.213 130.033 114.146 130.367C114.299 130.418 114.702 130.54 114.991 130.466C115.356 130.378 115.323 130.345 116.505 128.628C117.689 126.915 116.413 124.501 116.413 124.501Z" fill="white"/>
<path fill-rule="evenodd" clip-rule="evenodd" d="M107.488 127.281C107.554 126.904 107.01 126.643 106.131 126.731L105.496 126.793C105.496 126.793 105.541 127.292 106.347 127.788C105.463 127.637 104.043 126.614 103.287 124.5C103.287 124.5 102.016 126.915 103.195 128.628C104.375 130.345 104.346 130.378 104.709 130.466C104.999 130.539 105.401 130.418 105.552 130.367C105.484 130.033 105.487 129.717 105.489 129.648C105.489 129.6 105.509 129.556 105.548 129.523C105.579 129.49 105.624 129.468 105.67 129.468H105.685C105.708 129.475 105.734 129.475 105.76 129.475C105.83 129.475 105.909 129.468 105.985 129.468C106.074 129.457 106.153 129.45 106.225 129.45C106.271 129.45 106.352 129.45 106.435 129.483C106.713 129.45 106.962 129.417 107.023 129.399C107.159 129.351 107.123 128.793 107.123 128.793L105.718 128.118C105.718 128.118 107.34 128.51 107.525 128.51C107.615 128.217 107.416 127.663 107.488 127.281Z" fill="white"/>
<path fill-rule="evenodd" clip-rule="evenodd" d="M111.394 130.272C111.308 130.415 111.029 130.539 111.029 130.539C111.029 130.539 111.234 130.539 111.494 130.48C111.277 130.763 110.46 130.642 110.188 130.48C110.272 130.492 110.592 130.58 110.756 130.532C110.485 130.492 110.03 130.077 109.827 130.48C109.628 130.877 109.768 131.438 109.986 131.611C110.207 131.79 111.134 131.761 111.697 131.625C112.267 131.493 112.073 130.363 112.073 130.363C111.826 130.154 111.479 130.132 111.394 130.272Z" fill="white"/>
<path fill-rule="evenodd" clip-rule="evenodd" d="M109.748 130.437C109.757 130.415 109.772 130.389 109.79 130.374C109.564 130.172 109.178 130.499 108.944 130.532C109.106 130.58 109.425 130.492 109.51 130.481C109.237 130.642 108.422 130.763 108.203 130.481C108.461 130.54 108.667 130.54 108.667 130.54C108.667 130.54 108.391 130.415 108.302 130.271C108.218 130.132 107.874 130.154 107.626 130.363C107.626 130.363 107.432 131.493 107.998 131.626C108.562 131.761 109.492 131.79 109.713 131.611C109.741 131.589 109.766 131.56 109.794 131.519C109.628 131.248 109.573 130.778 109.748 130.437Z" fill="white"/>
<path fill-rule="evenodd" clip-rule="evenodd" d="M114.029 129.648C113.734 129.674 113.314 129.564 113.246 129.711C113.177 129.857 112.82 129.887 112.82 129.887C112.82 129.887 113.122 129.993 113.371 129.905C113.188 130.209 112.364 130.184 112.078 130.063C112.158 130.063 112.467 130.004 112.628 129.934C112.364 129.934 111.852 129.732 111.678 130.1C111.837 130.11 112.001 130.184 112.13 130.294C112.15 130.309 112.158 130.331 112.161 130.346C112.167 130.378 112.218 130.687 112.183 130.998C112.229 131.032 112.257 131.05 112.257 131.05C112.257 131.05 112.963 131.303 113.507 131.101C114.051 130.896 114.029 129.648 114.029 129.648Z" fill="white"/>
<path fill-rule="evenodd" clip-rule="evenodd" d="M115.556 106.258C115.546 106.258 115.532 106.262 115.521 106.262L115.532 106.515C115.532 106.515 114.481 106.798 113.885 107.058C113.697 107.146 113.354 107.198 112.933 107.234C112.933 107.245 112.939 107.249 112.941 107.256C112.946 107.289 113.018 107.73 112.971 108.184C113.035 108.228 113.151 108.426 113.221 108.548C113.57 109.131 113.518 109.194 114.823 108.324C115.508 107.873 115.556 106.258 115.556 106.258Z" fill="white"/>
<path fill-rule="evenodd" clip-rule="evenodd" d="M112.778 107.249C112.453 107.278 110.099 107.322 109.929 107.322H109.807C109.82 107.337 109.832 107.363 109.844 107.381C110.082 107.865 110.006 108.529 109.776 108.929C109.809 108.981 109.848 109.025 109.888 109.054C111.489 110.173 111.34 109.813 112.293 109.076C112.939 108.577 112.813 107.278 112.813 107.278C112.804 107.271 112.793 107.256 112.778 107.249Z" fill="white"/>
<path fill-rule="evenodd" clip-rule="evenodd" d="M106.29 107.344C105.666 107.344 104.073 106.611 104.073 106.611C104.073 106.611 103.946 107.796 104.575 108.324C105.08 108.743 105.784 109.241 105.875 109.058C105.963 108.878 106.363 108.229 106.428 108.185C106.393 107.84 106.428 107.499 106.446 107.344H106.29Z" fill="white"/>
<path fill-rule="evenodd" clip-rule="evenodd" d="M109.728 107.439C109.707 107.392 109.682 107.351 109.652 107.322C109.416 107.322 106.875 107.344 106.576 107.344C106.536 107.645 106.458 108.771 107.105 109.076C108.738 109.839 108.612 109.898 109.506 109.054C109.796 108.79 110.015 108.016 109.728 107.439Z" fill="white"/>
<path fill-rule="evenodd" clip-rule="evenodd" d="M118.536 105.983C118.343 105.704 117.957 105.788 117.957 105.788C117.957 105.788 116.06 105.961 115.866 106.394C116.327 107.127 116.384 107.769 116.384 107.769C116.384 107.769 116.008 107.226 115.715 106.83C115.66 107.388 115.455 108.155 115.033 108.529C115.079 108.625 115.077 108.639 115.132 108.731L115.765 109.839C115.765 109.839 115.931 108.584 115.715 107.707C116.228 108.324 116.607 112.048 115.674 114.297C115.674 114.297 118.155 113.365 118.516 108.742C118.689 106.574 118.73 106.269 118.536 105.983Z" fill="white"/>
<path fill-rule="evenodd" clip-rule="evenodd" d="M103.922 107.829C103.843 107.575 103.843 107.289 103.85 107.062C103.598 107.41 103.347 107.77 103.347 107.77C103.347 107.77 103.41 107.128 103.871 106.394C103.675 105.961 101.776 105.788 101.776 105.788C101.776 105.788 101.394 105.704 101.201 105.983C101.007 106.269 101.047 106.574 101.217 108.742C101.577 113.365 104.063 114.297 104.063 114.297C103.176 112.173 103.452 108.72 103.922 107.829Z" fill="white"/>
<path fill-rule="evenodd" clip-rule="evenodd" d="M98.9761 103.91C98.9761 103.91 100.14 104.963 100.505 105.385C100.865 105.803 101.078 106.555 100.505 106.739C100.14 106.317 99.8079 105.924 99.5642 105.924C99.898 106.166 100.442 106.922 100.592 107.403C100.745 107.88 100.927 109.024 100.805 109.751C100.684 110.478 101.595 112.338 101.41 115.438C101.716 115.082 101.561 113.336 101.561 113.336C101.561 113.336 102.409 116.252 102.227 118.787C102.047 121.312 101.925 126.551 102.227 127.571C101.504 126.368 101.139 125.766 101.017 118.417C101.379 118.417 101.379 118.861 101.379 119.353C101.379 119.855 101.379 123.649 101.744 123.869C101.653 122.647 101.519 119.037 101.561 118.362C101.607 117.68 101.379 117.368 101.017 117.005C100.654 116.649 100.791 114.388 100.333 113.893C99.8831 113.394 99.3393 110.228 99.0647 108.969C98.7916 107.7 99.0647 104.138 98.9761 103.91Z" fill="#6D6F71"/>
<path fill-rule="evenodd" clip-rule="evenodd" d="M97.6561 103.774C97.6561 103.774 98.3829 106.981 98.3386 108.335C98.2944 109.689 98.9745 110.999 98.9745 110.999C98.9745 110.999 97.6561 109.916 97.1103 108.562C96.5665 107.209 95.8397 105.583 94.1616 105.444C94.5229 105.172 96.0223 104.493 97.1103 105.755C97.2929 105.264 97.7004 104.537 97.6561 103.774Z" fill="#6D6F71"/>
<path fill-rule="evenodd" clip-rule="evenodd" d="M98.81 118.604C99.1712 118.542 99.8682 119.628 99.8682 119.628C99.8682 119.628 99.3836 118.542 98.5961 117.819C98.81 117.819 99.6249 118.751 99.6249 118.751C99.6249 118.751 99.413 117.698 98.6548 116.678C99.2323 117.064 99.4721 117.94 99.4721 117.94C99.4721 117.94 99.717 116.829 98.8985 115.68C98.0832 114.539 97.3846 113.519 97.6299 111.619C97.3552 111.498 97.3552 112.426 97.3552 112.426C97.3552 112.426 96.3557 109.689 93.3 107.975C93.3 107.975 95.6583 109.689 96.5677 111.498C97.4767 113.299 97.794 115.603 98.8821 116.506C98.3841 116.553 97.6573 115.247 96.8404 113.662C96.9317 115.02 98.0244 117.056 98.8821 117.595C97.9766 117.368 97.6115 115.922 95.4315 116.465C96.3851 116.649 97.4324 116.649 98.5647 118.226C97.794 117.68 96.6891 117.236 94.814 117.999C95.7966 117.68 97.7016 117.639 98.8821 119.129C99.6915 120.145 99.9254 120.6 99.9921 120.784C99.8961 120.409 99.5458 119.21 98.81 118.604Z" fill="#6D6F71"/>
<path fill-rule="evenodd" clip-rule="evenodd" d="M95.386 113.336C95.386 113.336 95.7527 113.336 96.3244 113.42C96.295 112.73 95.1443 112.308 95.1443 112.308C95.1443 112.308 96.6268 112.55 96.8705 113.182C96.4756 110.173 93.177 108.28 93.177 108.28C94.0084 109.208 94.2517 109.461 94.6134 109.916C94.4343 110.052 94.1134 110.595 94.2059 111.182C94.296 111.769 94.4343 112.58 94.296 113.031C93.7052 111.314 92.0721 109.688 90.5288 109.329C92.7989 110.228 93.5085 112.425 94.1134 113.541C94.7203 114.656 96.3835 115.801 97.0218 115.889C95.7786 114.961 95.386 113.336 95.386 113.336Z" fill="#6D6F71"/>
<path fill-rule="evenodd" clip-rule="evenodd" d="M122.152 103.774C122.152 103.774 121.424 106.981 121.47 108.335C121.518 109.689 120.833 110.999 120.833 110.999C120.833 110.999 122.152 109.916 122.696 108.562C123.24 107.209 123.968 105.583 125.647 105.444C125.283 105.172 123.788 104.493 122.696 105.755C122.513 105.264 122.106 104.537 122.152 103.774Z" fill="#6D6F71"/>
<path fill-rule="evenodd" clip-rule="evenodd" d="M122.748 112.268C122.706 112.371 122.682 112.426 122.682 112.426C122.682 112.426 122.682 111.736 122.508 111.626H122.504C122.494 111.615 122.486 111.615 122.477 111.608C122.468 111.604 122.458 111.604 122.449 111.604C122.447 111.604 122.446 111.608 122.44 111.608C122.429 111.608 122.42 111.615 122.411 111.619H122.409C122.44 111.846 122.453 112.062 122.458 112.268C122.481 113.765 121.855 114.675 121.138 115.68C120.321 116.829 120.563 117.94 120.563 117.94C120.563 117.94 120.804 117.063 121.378 116.678C120.622 117.698 120.41 118.751 120.41 118.751C120.41 118.751 121.229 117.819 121.441 117.819C120.657 118.542 120.166 119.628 120.166 119.628C120.166 119.628 120.863 118.542 121.229 118.604C120.491 119.21 120.139 120.409 120.048 120.784C120.113 120.6 120.345 120.145 121.151 119.129C122.333 117.639 124.242 117.68 125.225 117.999C123.347 117.236 122.245 117.68 121.47 118.226C122.604 116.649 123.648 116.649 124.607 116.465C122.424 115.922 122.062 117.368 121.151 117.595C122.016 117.056 123.108 115.02 123.196 113.662C122.379 115.247 121.653 116.553 121.151 116.505C122.095 115.724 122.46 113.901 123.13 112.25C123.176 112.136 123.222 112.026 123.272 111.916C123.279 111.898 123.289 111.879 123.294 111.861C123.346 111.751 123.401 111.637 123.454 111.527C123.456 111.516 123.463 111.508 123.467 111.497C124.376 109.689 126.739 107.975 126.739 107.975H126.737H126.739C126.644 108.023 126.556 108.078 126.468 108.133C126.453 108.137 126.437 108.148 126.423 108.162C126.353 108.203 126.28 108.251 126.208 108.291C126.187 108.302 126.169 108.32 126.148 108.331C126.086 108.371 126.023 108.412 125.964 108.459C125.94 108.478 125.924 108.485 125.902 108.5C125.839 108.548 125.776 108.588 125.715 108.636C125.7 108.647 125.688 108.661 125.669 108.672C125.597 108.724 125.531 108.779 125.461 108.83C125.459 108.838 125.453 108.841 125.448 108.841C125.221 109.017 125.013 109.208 124.821 109.388C124.812 109.391 124.808 109.395 124.804 109.402C124.745 109.461 124.688 109.513 124.631 109.575C124.626 109.578 124.62 109.582 124.616 109.593C124.555 109.648 124.5 109.703 124.446 109.766L124.439 109.769C123.421 110.852 122.912 111.89 122.746 112.268H122.748Z" fill="#6D6F71"/>
<path fill-rule="evenodd" clip-rule="evenodd" d="M126.554 108.467C126.554 108.467 126.548 108.467 126.546 108.471C126.521 108.489 126.493 108.507 126.465 108.525C126.456 108.529 126.45 108.537 126.443 108.544C126.417 108.562 126.389 108.577 126.36 108.599C126.355 108.606 126.344 108.61 126.332 108.621C126.307 108.639 126.281 108.658 126.257 108.68C126.214 108.705 126.17 108.738 126.124 108.768C126.119 108.779 126.105 108.789 126.098 108.789C126.067 108.815 126.032 108.841 126 108.867C125.989 108.878 125.982 108.881 125.971 108.888C125.936 108.922 125.899 108.947 125.862 108.973C125.857 108.98 125.849 108.987 125.838 108.995C125.801 109.025 125.761 109.058 125.726 109.09C125.716 109.094 125.709 109.098 125.7 109.109C125.659 109.142 125.621 109.171 125.58 109.212C125.575 109.215 125.569 109.219 125.564 109.23C125.517 109.259 125.475 109.307 125.431 109.34C125.429 109.347 125.429 109.347 125.427 109.347C125.093 109.648 124.739 110.008 124.414 110.419C124.365 110.481 124.322 110.54 124.278 110.598C124.273 110.598 124.273 110.602 124.271 110.602C124.228 110.664 124.182 110.727 124.14 110.789V110.793C123.878 111.171 123.642 111.585 123.463 112.037C123.463 112.044 123.461 112.044 123.461 112.048C123.434 112.114 123.411 112.176 123.386 112.246C123.384 112.253 123.38 112.264 123.378 112.268C123.277 112.558 123.207 112.87 123.164 113.181C123.408 112.55 124.887 112.308 124.887 112.308C124.887 112.308 123.742 112.73 123.708 113.42C124.282 113.335 124.647 113.335 124.647 113.335C124.647 113.335 124.254 114.961 123.013 115.889C123.646 115.801 125.311 114.656 125.917 113.541C126.139 113.137 126.375 112.58 126.701 111.996C126.712 111.97 126.725 111.952 126.736 111.93C126.758 111.897 126.779 111.853 126.795 111.824C126.815 111.795 126.83 111.769 126.847 111.736C126.88 111.688 126.911 111.637 126.941 111.578C126.963 111.556 126.982 111.516 127.003 111.486C127.02 111.457 127.042 111.428 127.063 111.395C127.081 111.362 127.103 111.328 127.127 111.303C127.146 111.274 127.166 111.244 127.184 111.222C127.222 111.163 127.262 111.108 127.302 111.057C127.319 111.028 127.339 111.006 127.36 110.976C127.387 110.943 127.415 110.91 127.441 110.87C127.465 110.844 127.487 110.819 127.505 110.793C127.538 110.752 127.574 110.716 127.605 110.679C127.627 110.657 127.646 110.635 127.668 110.609C127.71 110.558 127.762 110.514 127.808 110.463C127.83 110.441 127.851 110.419 127.876 110.397C127.907 110.36 127.946 110.327 127.985 110.29C128.007 110.272 128.029 110.25 128.053 110.228C128.108 110.173 128.166 110.129 128.224 110.081C128.244 110.063 128.261 110.052 128.283 110.041C128.326 110.001 128.376 109.964 128.424 109.927C128.446 109.905 128.474 109.898 128.501 109.876C128.547 109.839 128.599 109.806 128.649 109.773C128.673 109.755 128.691 109.744 128.713 109.732C128.783 109.689 128.853 109.641 128.929 109.601C128.949 109.593 128.975 109.578 128.999 109.564C129.058 109.538 129.111 109.505 129.169 109.476C129.198 109.461 129.226 109.446 129.255 109.443C129.329 109.402 129.406 109.369 129.486 109.336C129.491 109.332 129.5 109.332 129.502 109.329C129.46 109.34 129.41 109.351 129.366 109.366C129.357 109.369 129.349 109.369 129.337 109.369C129.301 109.384 129.265 109.391 129.228 109.406C129.217 109.414 129.205 109.417 129.192 109.421C129.158 109.428 129.123 109.443 129.086 109.454C129.075 109.461 129.064 109.461 129.051 109.468C129.015 109.479 128.98 109.502 128.945 109.513C128.933 109.516 128.923 109.52 128.914 109.527C128.87 109.542 128.829 109.557 128.787 109.582C128.783 109.582 128.783 109.582 128.78 109.586C128.682 109.63 128.591 109.681 128.497 109.732C128.49 109.736 128.48 109.74 128.477 109.744C128.437 109.765 128.402 109.788 128.363 109.813C128.352 109.817 128.339 109.817 128.328 109.828C128.296 109.846 128.258 109.876 128.224 109.898C128.213 109.902 128.202 109.905 128.193 109.916C128.156 109.942 128.119 109.964 128.081 109.993C128.071 109.997 128.066 110.001 128.059 110.008C127.97 110.07 127.88 110.132 127.787 110.206V110.209C127.745 110.243 127.706 110.276 127.662 110.305C127.655 110.32 127.646 110.327 127.636 110.327C127.605 110.36 127.57 110.386 127.538 110.419C127.527 110.43 127.514 110.441 127.505 110.444C127.474 110.477 127.439 110.503 127.413 110.533C127.4 110.54 127.389 110.551 127.378 110.562C127.347 110.595 127.317 110.624 127.282 110.657C127.277 110.661 127.266 110.672 127.26 110.679C127.181 110.756 127.098 110.837 127.02 110.921C127.013 110.932 127.003 110.943 126.994 110.954C126.967 110.987 126.937 111.017 126.911 111.046C126.899 111.061 126.886 111.072 126.869 111.09C126.849 111.12 126.823 111.149 126.803 111.174C126.79 111.189 126.777 111.211 126.764 111.222C126.74 111.255 126.716 111.284 126.694 111.307C126.681 111.328 126.67 111.34 126.659 111.358C126.631 111.391 126.611 111.42 126.587 111.45C126.578 111.464 126.565 111.479 126.554 111.494C126.522 111.534 126.493 111.578 126.456 111.629C126.454 111.637 126.449 111.644 126.441 111.655C126.417 111.688 126.39 111.732 126.366 111.769C126.355 111.78 126.344 111.802 126.334 111.816C126.314 111.846 126.295 111.879 126.277 111.905C126.266 111.927 126.253 111.941 126.238 111.963C126.227 111.996 126.205 112.022 126.192 112.048C126.179 112.066 126.167 112.092 126.157 112.106C126.139 112.136 126.121 112.165 126.105 112.202C126.098 112.216 126.084 112.239 126.078 112.253C126.073 112.26 126.071 112.264 126.067 112.268C125.936 112.521 125.823 112.778 125.737 113.031C125.6 112.58 125.737 111.769 125.825 111.182C125.917 110.595 125.6 110.052 125.418 109.916C125.781 109.461 126.023 109.208 126.856 108.28C126.856 108.28 126.742 108.342 126.554 108.467Z" fill="#6D6F71"/>
<path fill-rule="evenodd" clip-rule="evenodd" d="M126.849 91.1861C126.56 91.6592 125.487 91.9675 125.171 91.9527C125.224 91.586 125.837 90.7862 125.988 90.7238C125.769 90.654 124.92 91.0504 124.217 91.3182C124.47 91.0945 125.192 90.4595 125.64 90.1625C123.819 90.7971 122.988 92.8921 122.538 93.292C122.086 93.7028 121.358 93.971 121.038 93.5196C121.131 94.0626 122.038 94.1066 122.857 93.4315C122.492 93.9304 121.171 94.8768 120.721 93.4315C120.268 91.9859 120.768 92.8005 121.719 92.3012C122.658 91.8097 124.118 90.1076 125.158 90.0889L125.166 90.0705C124.587 89.8799 123.924 90.1918 123.263 90.7238C122.582 91.2593 121.131 92.5288 120.403 91.9859C120.946 92.0997 121.38 91.8023 121.628 91.6226C121.016 91.7805 120.655 91.6444 120.268 91.197C119.882 90.7386 119.132 90.9 118.929 90.6981C119.226 90.944 119.381 91.4647 119.086 91.5786C118.791 91.6963 117.542 91.3548 116.664 92.4957C117.21 92.1695 118.057 91.8315 119.39 92.074C119.148 92.1695 119.054 92.6208 119.054 92.6208C119.054 92.6208 119.871 92.5288 120.054 92.859C120.238 93.193 120.024 93.4608 119.871 93.49C119.571 93.4315 119.176 93.7028 119.054 93.8498C119.571 93.6073 120.541 93.6662 120.6 93.971C120.662 94.2719 120.845 94.7595 120.179 95.1742C119.513 95.5959 118.088 96.2784 118.588 98.5788C118.769 97.0014 118.453 96.1393 121.085 95.2405C121.267 95.4642 122.086 98.6085 121.238 99.6909C120.69 99.9953 120.024 100.538 120.024 101.441C120.268 101.202 120.871 99.9953 121.238 100.476L121.293 101.202C121.293 101.202 121.719 100.78 122.387 100.898C122.387 101.32 122.326 103.18 122.326 103.18C122.326 103.18 123.533 101.984 123.111 99.7532C123.718 99.9329 123.292 101.8 123.233 102.16C123.839 101.562 123.779 100.054 123.233 98.4872C123.233 98.4872 123.926 99.9329 125.444 100.116C123.926 99.5696 124.048 98.7589 123.626 97.5261C123.67 97.7973 123.703 98.2339 123.67 98.3551C123.491 97.871 123.084 96.9098 124.354 96.3665C123.856 95.8274 122.899 95.8711 122.538 96.5466C122.22 95.5484 121.494 94.6936 121.494 94.6936C121.494 94.6936 122.13 94.9649 122.403 95.3687C122.492 94.6016 122.691 93.1123 125.096 91.6226C124.596 92.1215 124.339 92.3749 124.111 92.8258C124.764 92.0923 126.528 92.316 126.849 91.1861Z" fill="#6D6F71"/>
<path fill-rule="evenodd" clip-rule="evenodd" d="M128.895 83.3603C128.895 83.3603 129.76 84.0794 129.124 84.4828C129.577 84.4427 129.502 84.0794 129.502 84.0794C129.502 84.0794 130.304 86.7872 129.303 88.1482C128.303 89.5023 126.081 90.4966 125.445 90.4046C126.219 90.5403 127.228 90.0304 127.776 89.6672C127.353 90.2101 126.778 90.7238 125.959 90.8119C126.442 91.0505 127.228 91.1128 127.44 91.0173C127.38 91.2302 126.2 92.3418 124.021 93.0683C126.2 92.5289 126.491 92.5035 126.76 92.4848C127.032 92.4556 127.711 92.3418 128.213 92.8446C128.714 93.34 129.258 93.7874 130.758 93.7029C129.714 93.6078 129.076 93.3984 128.41 92.6462C127.746 91.8943 126.987 92.1695 126.87 92.1695C127.263 91.8943 128.078 91.8651 128.534 92.2868C128.987 92.7086 129.714 92.4957 129.714 92.4957C129.714 92.4957 129.076 92.3749 128.803 91.7474C129.502 91.5346 130.684 91.6227 130.772 91.6519C130.592 91.3549 130.317 91.1128 130.317 91.1128C130.317 91.1128 131.165 90.856 132.301 91.579C133.435 92.3016 131.652 93.0683 131.526 93.9122C132.072 93.9122 132.375 93.7874 133.103 94.514C133.828 95.2405 133.891 96.7446 135.827 96.7446C134.193 95.7172 134.193 94.5763 133.828 93.9122C133.467 93.248 132.858 93.3104 132.858 93.3104C132.858 93.3104 134.737 92.951 136.491 93.248C138.248 93.5524 138.309 91.9859 138.309 91.9859C137.461 92.2284 135.22 92.1071 133.891 91.5603C134.979 91.685 136.491 91.9275 137.095 91.685C135.646 91.5603 134.556 91.1421 133.405 90.9659C132.255 90.7827 131.954 90.1185 132.009 89.5132C132.98 89.4544 133.253 89.5023 133.753 89.546C133.616 89.2341 132.211 88.8674 131.075 88.9149C131.753 88.372 132.858 88.2511 134.012 88.4308C133.223 88.0126 132.301 88.0527 132.301 88.0527C132.301 88.0527 134.023 87.6493 134.3 86.1557C134.933 86.2037 137.658 86.6075 139.336 85.1213C136.703 85.5286 134.979 85.5286 134.071 85.0258C135.115 85.1614 137.024 85.345 137.885 84.758C136.434 85.1213 134.569 84.9817 133.527 84.4427C132.482 83.8997 130.392 82.6813 128.895 83.3603Z" fill="#6D6F71"/>
<path fill-rule="evenodd" clip-rule="evenodd" d="M115.774 91.1272C116.065 90.5842 116.886 90.4962 117.317 90.5842C117.317 90.5842 116.908 90.3017 116.091 90.5698C115.272 90.8372 113.397 93.6038 112.88 93.9047C112.367 94.2017 112.611 93.3984 112.458 93.2772C112.305 93.1563 111.123 92.8882 111.123 92.8882L114.57 89.8137C114.57 89.8137 114.319 89.9275 114.136 90.1002C114.092 89.9898 114.435 89.5093 114.619 89.289C114.802 89.1094 115.169 88.6249 114.864 88.2799C115.136 89.0029 112.639 90.1294 112.412 90.6758C112.183 91.2192 111.307 92.0408 110.974 92.1511C110.643 92.2571 110.763 91.685 110.763 91.3365C110.763 90.9916 110.62 89.7918 111.073 89.5241C111.527 89.2524 112.799 87.6672 112.958 87.194C113.115 86.7318 113.707 86.3541 113.898 85.8657C113.78 86.0859 112.764 86.9044 112.458 87.5573C112.141 88.2363 111.322 88.7753 110.777 89.0505C110.959 88.6872 110.915 86.8347 110.688 86.2477C110.459 85.6607 110.553 85.0257 110.688 84.4828C110.915 84.5783 111.322 84.215 111.322 83.8077C111.322 83.4004 111.46 83.1326 112.047 82.2704C111.868 82.2704 111.37 82.8609 111.141 83.2207C111.187 82.949 111.068 82.707 110.579 81.5034C110.098 80.3002 110.156 76.9321 110.156 76.9321C110.156 76.9321 110.098 78.2566 110.035 79.5222C109.974 80.7846 110.643 83.2534 110.643 83.2534C110.643 83.2534 110.4 82.5897 109.912 82.6481C110.643 83.2534 110.337 84.5159 110.156 85.1212C109.974 85.723 108.37 84.9817 107.734 84.5783C108.097 85.2974 109.235 85.6607 109.281 86.1557C109.325 86.655 109.463 87.0178 109.778 87.1539C109.596 86.8347 109.825 86.2477 110.006 86.2917C109.825 86.7867 110.112 88.504 110.127 88.8085C110.144 89.1094 110.098 89.4103 109.871 89.289C109.31 89.0029 108.416 88.0122 107.555 87.2895C107.918 87.8913 109.416 89.2341 109.912 89.5899C110.415 89.9532 110.221 91.4721 110.186 91.7766C110.156 92.074 110.415 92.7966 109.69 92.5506C108.963 92.3125 108.008 90.6907 107.191 89.5132C107.918 89.7552 108.764 90.8703 108.98 91.1124C108.707 90.3605 107.599 89.5019 106.962 88.8194C106.329 88.1482 105.012 87.737 104.556 86.9263C105.012 87.7849 106.146 88.4195 106.194 88.7352C105.058 88.0527 103.8 88.2507 103.8 88.2507C103.8 88.2507 105.012 88.2363 105.51 88.5956C106.01 88.9554 107.599 91.0832 108.054 91.439C108.508 91.8023 109.179 92.7159 109.137 93.2589C107.365 93.2113 106.714 92.2571 106.26 91.5123C106.507 91.7805 106.827 91.9636 107.191 91.9161C106.646 91.8939 106.395 91.3291 106.215 90.8559C105.76 89.7439 103.9 89.9275 103.173 90.1294C102.445 90.3383 101.698 90.4264 101.22 90.4486C102.29 90.6283 102.874 90.3605 103.636 90.3239C104.39 90.3017 105.104 90.7495 105.346 91.3069C105.148 91.0648 104.739 90.6283 104.134 90.5402C104.527 90.6614 105.071 91.1712 105.497 91.7473C105.919 92.316 106.131 92.7674 106.799 93.1306C105.869 92.8445 105.674 93.2479 105.615 93.4608C105.395 94.8 106.699 96.117 106.703 96.315C106.848 96.2858 106.352 94.0992 106.528 94.0992C106.827 94.0992 108.337 95.7023 108.882 96.2418C108.831 96.0512 107.332 93.3801 107.332 93.3801C107.332 93.3801 108.921 95.0861 109.646 95.7756C109.495 95.7756 108.554 93.7028 108.554 93.7028C108.554 93.7028 108.986 93.6697 109.246 93.7468C110.18 94.0259 109.72 95.3063 110.156 96.0621C110.592 95.629 109.994 93.5375 111.029 93.5672C111.374 93.5781 111.862 93.8716 111.862 93.8716C111.862 93.8716 111.138 95.739 110.772 95.7756C111.075 95.9225 113.308 93.9121 113.636 93.9121C113.625 94.0002 111.614 96.4144 111.612 96.4951C111.761 96.4729 113.924 94.114 114.077 94.1101C114.084 94.0294 114.09 93.9671 114.092 93.9121C114.11 93.9706 114.129 94.0368 114.136 94.1101C114.392 94.114 113.555 96.165 113.716 96.2823C113.736 96.172 115.023 94.6936 114.699 93.3984C114.516 93.1306 114.319 93.1563 115.001 92.3932C115.681 91.6226 117.41 90.8559 118.453 90.8996C116.769 90.5659 116.839 90.7238 115.774 91.1272Z" fill="#6D6F71"/>
<path fill-rule="evenodd" clip-rule="evenodd" d="M100.353 102.042C100.353 102.042 101.621 102.886 102.472 103.18C103.318 103.484 104.834 105.444 106.195 105.745C104.107 104.809 103.318 103.128 102.951 102.49C102.986 103.007 103.288 103.455 103.288 103.455C103.288 103.455 100.563 102.131 100.353 102.042Z" fill="#6D6F71"/>
<path d="M100.353 102.042C100.353 102.042 101.621 102.886 102.472 103.18C103.318 103.484 104.834 105.444 106.195 105.745C104.107 104.809 103.318 103.128 102.951 102.49C102.986 103.007 103.288 103.455 103.288 103.455C103.288 103.455 100.563 102.131 100.353 102.042V102.042Z" stroke="#6D6F71" stroke-width="0.742" stroke-miterlimit="3.864" stroke-linecap="round" stroke-linejoin="bevel"/>
<path fill-rule="evenodd" clip-rule="evenodd" d="M99.3811 96.829C99.3811 96.829 99.9582 100.627 102.136 102.043C100.924 101.529 99.3811 99.2101 99.3811 96.829Z" fill="#D0343A"/>
<path d="M99.3811 96.829C99.3811 96.829 99.9582 100.627 102.136 102.043C100.924 101.529 99.3811 99.2101 99.3811 96.829Z" stroke="#6D6F71" stroke-width="0.742" stroke-miterlimit="3.864" stroke-linecap="round" stroke-linejoin="bevel"/>
<path fill-rule="evenodd" clip-rule="evenodd" d="M128.016 81.9292C128.016 81.9292 129.772 81.9842 131.105 81.1477C130.496 81.2651 129.349 81.6872 128.123 81.0082C129.982 81.1037 129.211 80.4691 129.211 80.4691C129.211 80.4691 130.21 80.5791 130.505 80.8285C130.461 80.5572 129.733 80.3518 129.733 80.3518C129.733 80.3518 131.772 79.7574 132.254 79.4565C132.978 79.6362 133.102 80.4836 133.102 80.4836L133.008 79.8198C133.008 79.8198 134.313 80.1831 132.923 81.2651C134.07 81.0854 133.827 81.8084 132.312 81.8669C133.282 82.0504 133.752 81.7312 134.299 82.6815C134.841 83.6278 136.025 83.6278 136.025 83.6278C136.025 83.6278 135.433 83.852 134.568 83.7198C135.388 84.0351 135.388 84.5344 136.159 84.5344C135.523 84.7102 134.477 84.6221 132.3 83.5362C130.116 82.4539 129.301 82.8171 129.301 82.8171C129.301 82.8171 129.62 82.3662 131.164 82.6374C130.391 82.3217 128.757 82.2707 127.85 82.5899C128.394 82.0906 128.96 82.1861 128.96 82.1861C128.96 82.1861 128.365 82.1494 128.016 81.9292Z" fill="#6D6F71"/>
<path fill-rule="evenodd" clip-rule="evenodd" d="M107.018 129.931C107.175 129.997 107.523 130.041 107.606 130.041C107.321 130.165 106.496 130.191 106.316 129.883C106.563 129.971 106.8 129.89 106.8 129.89C106.8 129.89 106.507 129.839 106.439 129.692C106.369 129.546 105.952 129.655 105.654 129.634C105.654 129.634 105.632 130.877 106.176 131.079C106.721 131.284 107.426 131.035 107.426 131.035C107.426 131.035 107.453 131.013 107.499 130.983C107.468 130.665 107.516 130.36 107.522 130.331C107.527 130.309 107.535 130.294 107.553 130.279C107.682 130.165 107.848 130.092 108.005 130.077C107.835 129.718 107.282 129.931 107.018 129.931Z" fill="white"/>
<path fill-rule="evenodd" clip-rule="evenodd" d="M120.776 103.547C120.776 103.547 119.609 104.6 119.243 105.018C118.881 105.44 118.67 106.196 119.243 106.375C119.609 105.954 119.939 105.561 120.186 105.561C119.85 105.803 119.308 106.556 119.155 107.036C119.004 107.52 118.823 108.669 118.943 109.388C119.065 110.107 118.154 111.978 118.338 115.082C118.034 114.715 118.185 112.972 118.185 112.972C118.185 112.972 117.339 115.889 117.519 118.417C117.701 120.953 117.82 126.188 117.519 127.215C118.246 126.008 118.611 125.407 118.731 118.061C118.368 118.061 118.368 118.491 118.368 118.997C118.368 119.485 118.368 123.286 118.001 123.506C118.094 122.292 118.231 118.678 118.185 117.999C118.143 117.324 118.368 117.005 118.731 116.642C119.094 116.278 118.96 114.022 119.415 113.53C119.865 113.031 120.411 109.869 120.686 108.606C120.957 107.337 120.686 103.767 120.776 103.547Z" fill="#6D6F71"/>
<path fill-rule="evenodd" clip-rule="evenodd" d="M92.8818 91.1787C93.1749 91.6445 94.2481 91.9563 94.5635 91.9489C94.5102 91.5787 93.8978 90.7749 93.7465 90.7126C93.966 90.6428 94.8142 91.0431 95.5187 91.3144C95.2644 91.0833 94.547 90.4522 94.0953 90.1552C95.9136 90.7862 96.7489 92.8848 97.1972 93.2882C97.6524 93.692 98.3788 93.9672 98.6982 93.5084C98.6057 94.0553 97.6967 94.0993 96.8778 93.4242C97.243 93.9196 98.5634 94.8695 99.0136 93.4242C99.4669 91.9751 98.9689 92.7893 98.0156 92.2939C97.0773 91.8024 95.6166 90.1003 94.5729 90.078L94.5693 90.0632C95.1465 89.8726 95.8102 90.1844 96.4704 90.7126C97.149 91.252 98.6057 92.5141 99.3325 91.9751C98.7867 92.0885 98.3549 91.795 98.1061 91.6153C98.7181 91.7767 99.0817 91.6371 99.4669 91.1862C99.8544 90.7348 100.603 90.8923 100.806 90.6908C100.511 90.9367 100.354 91.4574 100.647 91.5677C100.942 91.6777 102.193 91.3475 103.068 92.4884C102.526 92.1547 101.674 91.8242 100.346 92.0631C100.588 92.1547 100.68 92.6131 100.68 92.6131C100.68 92.6131 99.8599 92.5141 99.6808 92.8516C99.4982 93.1783 99.7102 93.4499 99.8599 93.4827C100.162 93.4242 100.558 93.692 100.68 93.8424C100.162 93.6039 99.1961 93.6663 99.1335 93.9672C99.0743 94.2646 98.8897 94.7448 99.559 95.1634C100.225 95.5851 101.646 96.2676 101.147 98.5715C100.968 96.9902 101.283 96.132 98.6535 95.2331C98.4693 95.453 97.6524 98.5972 98.4987 99.6835C99.0429 99.9879 99.7102 100.527 99.7102 101.43C99.4669 101.188 98.8623 99.9879 98.4987 100.472L98.4415 101.188C98.4415 101.188 98.0156 100.766 97.348 100.891C97.348 101.309 97.4107 103.176 97.4107 103.176C97.4107 103.176 96.2012 101.977 96.6251 99.742C96.0186 99.9256 96.4425 101.797 96.4997 102.153C95.8968 101.551 95.9559 100.043 96.4997 98.4799C96.4997 98.4799 95.8047 99.9256 94.2908 100.105C95.8047 99.5623 95.6828 98.7516 96.1072 97.5188C96.0648 97.7865 96.0315 98.2231 96.0648 98.3443C96.2455 97.8598 96.6529 96.8986 95.3823 96.3631C95.8783 95.8162 96.8355 95.8603 97.1972 96.5354C97.5141 95.5411 98.2405 94.6863 98.2405 94.6863C98.2405 94.6863 97.6066 94.9615 97.3351 95.3649C97.243 94.5943 97.0459 93.1085 94.6395 91.6153C95.139 92.1107 95.3972 92.3711 95.6256 92.8185C94.9729 92.085 93.2062 92.3087 92.8818 91.1787Z" fill="#6D6F71"/>
<path fill-rule="evenodd" clip-rule="evenodd" d="M90.839 83.349C90.839 83.349 89.9758 84.072 90.6106 84.4789C90.1568 84.4349 90.234 84.072 90.234 84.072C90.234 84.072 89.434 86.7832 90.4315 88.1408C91.431 89.4945 93.6549 90.4853 94.2892 90.3972C93.5185 90.5328 92.5041 90.0191 91.9603 89.6558C92.3842 90.1988 92.9598 90.7125 93.7767 90.8006C93.2917 91.0426 92.5041 91.105 92.2922 91.0099C92.3509 91.2227 93.5334 92.3343 95.713 93.0609C93.5334 92.514 93.2439 92.4957 92.9708 92.47C92.7016 92.4517 92.021 92.3343 91.5215 92.8332C91.0216 93.3286 90.4758 93.7835 88.9783 93.6919C90.0221 93.6038 90.6564 93.391 91.326 92.6387C91.9897 91.883 92.7459 92.1547 92.8658 92.1547C92.4712 91.883 91.6559 91.8573 91.2041 92.2755C90.7469 92.6976 90.0221 92.4883 90.0221 92.4883C90.0221 92.4883 90.6564 92.371 90.9314 91.736C90.234 91.5271 89.0524 91.6152 88.9638 91.6444C89.1444 91.3474 89.4156 91.105 89.4156 91.105C89.4156 91.105 88.5689 90.8485 87.433 91.5677C86.2991 92.2938 88.0842 93.0609 88.2057 93.9047C87.6634 93.9047 87.3594 93.7835 86.631 94.5065C85.9062 95.2327 85.8435 96.7372 83.9091 96.7372C85.539 95.7097 85.539 94.565 85.9062 93.9047C86.2694 93.2406 86.8743 93.3029 86.8743 93.3029C86.8743 93.3029 84.9972 92.9361 83.2435 93.2406C81.4858 93.545 81.4251 91.9746 81.4251 91.9746C82.2734 92.217 84.5137 92.0993 85.8435 91.5528C84.7574 91.6737 83.2435 91.9161 82.6385 91.6737C84.0882 91.5528 85.1798 91.1272 86.3321 90.9545C87.4793 90.7714 87.7817 90.1072 87.7234 89.5093C86.7525 89.4469 86.4813 89.4945 85.9798 89.5385C86.1181 89.2193 87.5235 88.8599 88.6594 88.9036C87.9808 88.361 86.8743 88.2433 85.7236 88.4234C86.5111 88.0048 87.433 88.0453 87.433 88.0453C87.433 88.0453 85.7071 87.6419 85.434 86.1522C84.8036 86.1962 82.0779 86.5996 80.3982 85.1138C83.0331 85.5137 84.7574 85.5137 85.6629 85.0219C84.6191 85.1579 82.7122 85.3337 81.851 84.7506C83.3022 85.1138 85.1649 84.9782 86.2106 84.4349C87.2544 83.8884 89.3419 82.6739 90.839 83.349Z" fill="#6D6F71"/>
<path fill-rule="evenodd" clip-rule="evenodd" d="M91.7216 81.9217C91.7216 81.9217 89.964 81.9767 88.6346 81.1328C89.2395 81.2575 90.3863 81.6797 91.6147 80.9972C89.754 81.0853 90.5266 80.4577 90.5266 80.4577C90.5266 80.4577 89.5252 80.568 89.2266 80.8175C89.2783 80.5458 90.0028 80.3443 90.0028 80.3443C90.0028 80.3443 87.967 79.746 87.4823 79.4525C86.7555 79.6322 86.6337 80.4761 86.6337 80.4761L86.7277 79.8084C86.7277 79.8084 85.4242 80.1716 86.8143 81.2575C85.6655 81.0779 85.9088 81.797 87.4212 81.8593C86.453 82.039 85.9829 81.7272 85.4371 82.674C84.8937 83.6203 83.7128 83.6203 83.7128 83.6203C83.7128 83.6203 84.3028 83.848 85.1679 83.7084C84.3471 84.0276 84.3471 84.5195 83.5784 84.5195C84.2127 84.7027 85.26 84.6185 87.4361 83.5326C89.6176 82.4428 90.4345 82.8096 90.4345 82.8096C90.4345 82.8096 90.1152 82.3547 88.5719 82.626C89.3445 82.3068 90.9784 82.2667 91.8858 82.5824C91.3435 82.087 90.7738 82.1716 90.7738 82.1716C90.7738 82.1716 91.3729 82.1345 91.7216 81.9217Z" fill="#6D6F71"/>
<path fill-rule="evenodd" clip-rule="evenodd" d="M103.516 88.0126C103.516 88.0126 102.314 87.8512 101.709 87.1282C101.102 86.413 97.6615 82.7293 96.6361 82.6412C97.0675 82.557 97.7481 82.4358 98.2292 82.4798C97.2242 82.1497 95.9963 81.6177 94.4342 82.0873C92.874 82.557 92.1128 82.2452 91.6054 81.7755C91.978 82.3551 92.7283 82.4724 92.7283 82.4724C92.7283 82.4724 91.8416 82.4615 91.4929 83.0668C92.0681 83.0009 92.8043 83.0009 93.2541 83.2539C93.1303 83.2722 92.9442 83.3054 92.8889 83.4009C93.193 83.4449 93.5879 83.7676 93.6725 84.1601C93.4688 84.0576 93.1655 84.0611 92.9681 84.2595C93.1894 84.1566 93.7669 84.1972 94.0451 84.8757C94.3257 85.5582 95.4964 87.921 96.9476 88.0235C98.3953 88.1225 98.6617 87.5468 98.9579 87.5687C99.251 87.6018 99.4003 87.7226 99.5774 88.0344C99.7545 88.3466 99.8042 89.095 100.319 89.1683C100.297 89.4583 100.411 90.2359 99.8759 90.603C100.964 90.1478 100.516 89.9903 101.062 89.9794C101.612 89.9646 101.444 89.1024 101.307 88.941C102.183 88.9851 104.163 88.9188 105.163 90.0012C104.818 89.3261 103.321 88.7243 102.637 88.7758C103.017 88.6109 103.817 88.3541 103.516 88.0126Z" fill="#6D6F71"/>
<path fill-rule="evenodd" clip-rule="evenodd" d="M116.431 88.1483C116.431 88.1483 117.63 87.9612 118.224 87.2312C118.812 86.5046 122.194 82.7585 123.217 82.656C122.782 82.5789 122.1 82.4651 121.62 82.5126C122.616 82.1716 123.838 81.6173 125.406 82.0577C126.972 82.5017 127.733 82.179 128.23 81.7019C127.863 82.2854 127.118 82.421 127.118 82.421C127.118 82.421 128.006 82.3953 128.366 82.9936C127.787 82.9382 127.051 82.9491 126.61 83.206C126.734 83.2243 126.917 83.2465 126.972 83.3491C126.673 83.397 126.28 83.7306 126.201 84.127C126.402 84.0171 126.71 84.0097 126.911 84.2003C126.69 84.1087 126.114 84.1602 125.849 84.8427C125.578 85.5322 124.772 87.741 123.328 87.8696C121.881 87.9978 121.274 87.5944 120.979 87.6272C120.686 87.6529 120.54 87.785 120.367 88.1007C120.195 88.4126 120.162 89.1683 119.644 89.2381C119.675 89.5316 119.574 90.3131 120.116 90.665C119.018 90.2359 119.467 90.0706 118.919 90.0671C118.371 90.0636 118.522 89.1976 118.657 89.0327C117.78 89.095 115.797 89.0545 114.818 90.1626C115.148 89.4801 116.634 88.8526 117.327 88.8892C116.942 88.7279 116.134 88.5006 116.431 88.1483Z" fill="#6D6F71"/>
<path fill-rule="evenodd" clip-rule="evenodd" d="M109.378 116.953C109.378 116.953 108.152 116.953 107.381 116.502C106.608 116.055 105.248 116.638 104.656 117.728C104.067 118.802 103.927 120.34 103.885 122.42C103.839 124.446 105.657 124.541 106.29 125.311C106.928 126.078 108.606 125.491 109.471 125.447C110.332 125.399 112.102 125.715 112.604 125.627C113.1 125.535 115.687 123.954 115.827 122.372C115.962 120.795 115.101 117.049 114.147 116.682C112.01 115.871 112.377 117.221 109.378 116.953Z" fill="#D0343A"/>
<path fill-rule="evenodd" clip-rule="evenodd" d="M109.673 118.436C109.673 118.436 109.701 124.159 109.581 124.486C109.46 124.816 107.918 125.146 107.071 124.574C106.221 124.005 105.768 123.859 105.768 123.859C105.768 123.859 106.738 124.61 107.129 124.875C107.525 125.146 108.628 125.194 109.156 124.967C109.686 124.743 110.109 124.655 110.837 124.923C111.564 125.194 112.821 125.33 113.518 124.596C112.836 124.941 111.67 125.146 111.021 124.681C110.37 124.214 109.852 124.339 109.852 124.339C109.852 124.339 109.989 118.623 109.673 118.436Z" fill="black"/>
<path fill-rule="evenodd" clip-rule="evenodd" d="M114.085 96.4473C113.876 96.3444 113.119 97.0378 112.529 97.3828C112.311 97.1848 113.056 95.6768 113.056 95.6768L111.029 97.2873C111.029 96.8141 110.662 96.4325 110.187 96.4216C109.687 96.4033 109.268 96.825 109.283 97.3169C107.913 96.293 107.415 95.6436 107.415 95.6436C107.415 95.6436 107.913 97.2873 108.319 97.7203C106.699 96.4216 106.194 96.5206 105.888 96.7923C105.388 97.2288 105.069 99.118 105.558 100.718C105.987 102.127 107.625 102.813 108.116 103.092C108.604 103.367 109.337 103.547 110.175 103.547H110.179H110.183C111.022 103.547 111.752 103.367 112.245 103.092C112.733 102.813 114.371 102.127 114.8 100.718C115.291 99.118 114.896 96.8507 114.085 96.4473Z" fill="#6D6F71"/>
<path fill-rule="evenodd" clip-rule="evenodd" d="M111.332 102.119C111.332 102.119 111.697 101.866 111.585 101.477C111.67 101.338 112.258 101.173 112.315 100.391C112.373 99.61 113.289 99.0335 113.658 98.9676C112.912 99.3453 112.765 99.9144 112.765 99.9144C112.765 99.9144 113.512 99.0631 114.722 99.0409C114.185 99.1403 113.409 99.4408 113.187 99.8041C113.409 99.8337 113.606 100.809 113.045 101.364C113.247 101.063 113.241 100.839 113.241 100.839C113.241 100.839 112.975 100.714 112.785 101.07C112.597 101.429 112.365 102.057 112.029 102.182C111.692 102.31 111.332 102.119 111.332 102.119Z" fill="black"/>
<path fill-rule="evenodd" clip-rule="evenodd" d="M108.971 102.119C108.971 102.119 108.605 101.866 108.715 101.477C108.636 101.338 108.044 101.173 107.987 100.391C107.933 99.61 107.013 99.0335 106.644 98.9676C107.391 99.3453 107.541 99.9144 107.541 99.9144C107.541 99.9144 106.792 99.0631 105.58 99.0409C106.119 99.1403 106.895 99.4408 107.118 99.8041C106.895 99.8337 106.7 100.809 107.258 101.364C107.055 101.063 107.064 100.839 107.064 100.839C107.064 100.839 107.329 100.714 107.517 101.07C107.708 101.429 107.939 102.057 108.274 102.182C108.612 102.31 108.971 102.119 108.971 102.119Z" fill="black"/>
<path fill-rule="evenodd" clip-rule="evenodd" d="M92.9995 82.7696L93.9806 83.3125C93.7279 83.753 94.4269 84.0426 94.4895 84.3622C94.6353 85.0848 95.2218 86.2405 95.6199 86.7834C96.0219 87.3229 96.6358 87.7629 97.287 87.7228C97.9452 87.6861 98.5631 87.4698 98.9224 87.2165C99.0537 87.1284 99.8318 87.3595 100.157 88.4454C100.861 88.6142 101.362 87.7263 101.432 87.6164C101.539 87.4367 99.3561 85.0848 99.1054 84.9047C98.8507 84.7215 97.9805 83.9658 97.7243 83.7124C97.4696 83.4595 96.8509 82.9532 96.2009 82.6998C95.996 82.6191 96.4074 82.3771 96.2338 82.3365C95.8507 82.2449 94.9452 82.4137 94.7458 82.4137C94.4543 82.4137 92.9995 82.7696 92.9995 82.7696Z" fill="black"/>
<path d="M92.9995 82.7696L93.9806 83.3125C93.7279 83.753 94.4269 84.0426 94.4895 84.3622C94.6353 85.0848 95.2218 86.2405 95.6199 86.7834C96.0219 87.3229 96.6358 87.7629 97.287 87.7228C97.9452 87.6861 98.5631 87.4698 98.9224 87.2165C99.0537 87.1284 99.8318 87.3595 100.157 88.4454C100.861 88.6142 101.362 87.7263 101.432 87.6164C101.539 87.4367 99.3561 85.0848 99.1054 84.9047C98.8507 84.7215 97.9805 83.9658 97.7243 83.7124C97.4696 83.4595 96.8509 82.9532 96.2009 82.6998C95.996 82.6191 96.4074 82.3771 96.2338 82.3365C95.8507 82.2449 94.9452 82.4137 94.7458 82.4137C94.4543 82.4137 92.9995 82.7696 92.9995 82.7696Z" stroke="black" stroke-width="0.185" stroke-miterlimit="3.864" stroke-linecap="round" stroke-linejoin="bevel"/>
<path fill-rule="evenodd" clip-rule="evenodd" d="M126.18 82.9533C125.85 83.133 125.888 83.7823 125.671 84.2886C125.455 84.7988 125.125 85.7016 124.979 86.0976C124.836 86.4936 124.109 87.18 123.816 87.3596C123.528 87.5432 122.582 87.6165 122.108 87.5799C121.635 87.5432 121.162 87.5066 120.911 87.4368C120.655 87.3596 120.399 87.2532 120.294 87.6165C120.181 87.9763 120.146 88.6256 119.855 88.6256C119.566 88.6256 118.948 88.4787 118.549 88.4787C118.149 88.4787 117.858 88.2694 118.112 87.9763C118.363 87.6863 119.527 86.5306 119.713 86.2772C119.818 86.1233 120.325 85.5324 120.911 85.0152C121.293 84.6702 121.939 84.197 122.108 83.9328C122.761 82.9127 123.962 82.744 124.181 82.744C124.397 82.744 123.489 82.4138 123.489 82.4138C123.489 82.4138 124.144 82.3 124.906 82.4505C125.671 82.5939 126.397 82.6306 126.691 82.7366C126.976 82.8434 126.508 82.7697 126.18 82.9533Z" fill="black"/>
<path fill-rule="evenodd" clip-rule="evenodd" d="M95.5762 83.1111C95.5762 83.1111 96.3727 83.3972 96.8762 83.5881C97.3812 83.7752 97.601 84.2153 97.8682 84.4429C98.1339 84.674 98.5268 84.8572 99.0229 85.5031C99.5095 86.1454 99.6016 86.0242 99.6016 86.0242C99.6016 86.0242 98.6538 87.7228 96.9479 86.9378C95.2404 86.1454 96.2223 84.1346 96.3837 83.8555C96.9996 84.0465 97.2856 84.4538 97.2856 84.4538C97.2856 84.4538 96.6364 85.5912 97.3428 86.0207C98.298 86.5929 98.7846 85.5768 98.7846 85.5768C98.7846 85.5768 98.0986 84.7251 97.5677 84.5419C97.7005 84.5162 97.4314 84.1935 97.0874 83.9292C96.7488 83.6649 95.6941 83.32 95.5762 83.1111Z" fill="#FFF200"/>
<path fill-rule="evenodd" clip-rule="evenodd" d="M124.573 83.041C124.573 83.041 123.787 83.32 123.291 83.5071C122.797 83.6942 122.581 84.1233 122.321 84.351C122.056 84.5782 121.672 84.7583 121.185 85.3889C120.704 86.0204 120.617 85.903 120.617 85.903C120.617 85.903 121.55 87.5759 123.219 86.8018C124.899 86.0239 123.933 84.0462 123.772 83.7749C123.171 83.962 122.893 84.358 122.893 84.358C122.893 84.358 123.529 85.4809 122.838 85.8956C121.897 86.4643 121.416 85.4665 121.416 85.4665C121.416 85.4665 122.091 84.6297 122.613 84.4461C122.482 84.4242 122.749 84.0976 123.083 83.8447C123.419 83.5878 124.458 83.2429 124.573 83.041Z" fill="#FFF200"/>
<path d="M42.6591 155.964C41.6228 155.104 40.6268 154.673 39.6755 154.673H29.8577C27.8677 154.673 26.5991 154.976 26.0513 155.577C25.5314 156.152 25.2732 157.37 25.2732 159.235C25.2732 160.899 25.6031 161.974 26.2672 162.462C26.9309 162.95 28.1279 163.192 29.8577 163.192H38.4637C40.0497 163.192 41.2686 163.623 42.1188 164.484C42.9686 165.344 43.3949 166.505 43.3949 167.969V172.574C43.3949 174.783 42.9487 176.158 42.0542 176.703C41.3039 177.134 39.69 177.349 37.2087 177.349H21.2494V173.262C22.2877 174.122 23.2245 174.551 24.0618 174.551H34.8751C36.8651 174.551 38.1318 174.238 38.6815 173.605C39.1701 173.033 39.4154 171.813 39.4154 169.949C39.4154 168.514 39.2273 167.568 38.8527 167.109C38.3626 166.362 37.4552 165.99 36.1293 165.99H27.0896C25.7916 165.99 24.4931 165.704 23.1967 165.13C21.8986 164.442 21.2494 163.436 21.2494 162.117V156.652C21.2494 154.444 21.6976 153.068 22.5901 152.523C23.2825 152.092 24.8971 151.877 27.4344 151.877H42.6591V155.964Z" fill="white"/>
<path d="M65.7133 158.631C65.7133 157.054 65.3666 155.979 64.675 155.405C64.0113 154.917 62.8144 154.673 61.0845 154.673H54.8572C53.0686 154.673 51.8717 154.931 51.2671 155.449C50.6324 155.964 50.3154 157.026 50.3154 158.631V170.594C50.3154 172.201 50.6324 173.261 51.2671 173.777C51.8717 174.294 53.0686 174.551 54.8572 174.551H61.0845C62.8144 174.551 64.0113 174.309 64.675 173.821C65.3666 173.276 65.7133 172.201 65.7133 170.594V158.631ZM69.6482 172.574C69.6482 174.782 69.2004 176.158 68.3078 176.703C67.6441 177.134 66.0303 177.349 63.4636 177.349H52.4786C49.8821 177.349 48.2667 177.134 47.6339 176.703C46.7398 176.158 46.2936 174.782 46.2936 172.574V156.652C46.2936 154.443 46.7398 153.067 47.6339 152.523C48.2667 152.091 49.8821 151.877 52.4786 151.877H63.4636C66.0303 151.877 67.6441 152.091 68.3078 152.523C69.2004 153.067 69.6482 154.443 69.6482 156.652V172.574Z" fill="white"/>
<path d="M72.7617 177.349C73.3369 175.944 73.6264 174.667 73.6264 173.52V155.792C73.6264 154.473 73.3369 153.154 72.7617 151.833H78.5577C77.9508 152.838 77.6475 154.157 77.6475 155.792V174.509H85.8229C86.7158 174.509 87.7263 174.078 88.8511 173.218V177.349H72.7617Z" fill="white"/>
<path d="M115.625 151.877C115.02 152.824 114.716 154.071 114.716 155.62V172.574C114.716 174.783 114.27 176.159 113.375 176.703C112.625 177.134 111.026 177.349 108.575 177.349H97.5462C94.9517 177.349 93.3359 177.134 92.7016 176.703C91.8075 176.159 91.3612 174.783 91.3612 172.574V155.62C91.3612 154.589 91.0717 153.339 90.4961 151.877H96.292C95.6851 153.398 95.3831 154.645 95.3831 155.62V170.595C95.3831 172.229 95.7149 173.304 96.3786 173.821C97.0408 174.309 98.2377 174.551 99.9672 174.551H106.196C107.954 174.551 109.166 174.295 109.829 173.777C110.434 173.233 110.738 172.172 110.738 170.595V155.62C110.738 154.443 110.449 153.196 109.872 151.877H115.625Z" fill="white"/>
<path d="M136.948 155.964C135.997 155.104 134.973 154.673 133.878 154.673H128.774V173.95C128.774 175.241 129.076 176.375 129.683 177.349H123.887C124.462 176.346 124.752 175.212 124.752 173.95V154.673H119.69C118.941 154.673 118.133 155.104 117.269 155.964V151.877H136.948V155.964Z" fill="white"/>
<path d="M138.247 177.349C138.852 176.23 139.154 175.054 139.154 173.821V155.663C139.154 154.315 138.852 153.053 138.247 151.877H144.043C143.436 153.398 143.134 154.66 143.134 155.663V173.821C143.134 175.14 143.436 176.316 144.043 177.349H138.247Z" fill="white"/>
<path d="M166.272 158.631C166.272 157.054 165.927 155.979 165.234 155.405C164.57 154.917 163.375 154.673 161.645 154.673H155.416C153.628 154.673 152.433 154.931 151.826 155.449C151.192 155.964 150.874 157.026 150.874 158.631V170.594C150.874 172.201 151.192 173.261 151.826 173.777C152.433 174.294 153.628 174.551 155.416 174.551H161.645C163.375 174.551 164.57 174.309 165.234 173.821C165.927 173.276 166.272 172.201 166.272 170.594V158.631ZM170.209 172.574C170.209 174.782 169.761 176.158 168.867 176.703C168.205 177.134 166.59 177.349 164.025 177.349H153.038C150.443 177.349 148.828 177.134 148.193 176.703C147.299 176.158 146.853 174.782 146.853 172.574V156.652C146.853 154.443 147.299 153.067 148.193 152.523C148.828 152.091 150.443 151.877 153.038 151.877H164.025C166.59 151.877 168.205 152.091 168.867 152.523C169.761 153.067 170.209 154.443 170.209 156.652V172.574Z" fill="white"/>
<path d="M177.343 158.245V173.132C177.343 174.309 177.632 175.715 178.209 177.349H173.365C173.94 175.887 174.23 174.482 174.23 173.132V156.396C174.23 154.845 173.94 153.326 173.365 151.833H177.473L192.438 173.218V156.396C192.438 154.904 192.136 153.383 191.531 151.833H196.46C195.855 153.268 195.552 154.789 195.552 156.396V172.402C195.552 174.122 195.855 175.771 196.46 177.349H190.882L177.343 158.245Z" fill="white"/>
<path d="M220.682 155.964C219.644 155.104 218.651 154.673 217.699 154.673H207.879C205.889 154.673 204.621 154.976 204.073 155.577C203.555 156.152 203.295 157.37 203.295 159.235C203.295 160.899 203.627 161.974 204.291 162.462C204.953 162.95 206.149 163.192 207.879 163.192H216.487C218.073 163.192 219.29 163.623 220.142 164.484C220.992 165.344 221.418 166.505 221.418 167.969V172.574C221.418 174.783 220.97 176.158 220.077 176.703C219.327 177.134 217.712 177.349 215.233 177.349H199.273V173.262C200.311 174.122 201.248 174.551 202.083 174.551H212.897C214.886 174.551 216.156 174.238 216.703 173.605C217.193 173.033 217.439 171.813 217.439 169.949C217.439 168.514 217.251 167.568 216.876 167.109C216.386 166.362 215.477 165.99 214.151 165.99H205.111C203.815 165.99 202.516 165.704 201.218 165.13C199.922 164.442 199.273 163.436 199.273 162.117V156.652C199.273 154.444 199.719 153.068 200.613 152.523C201.305 152.092 202.92 151.877 205.458 151.877H220.682V155.964Z" fill="white"/>
</svg>
